<svg width="264" height="22" viewBox="0 0 264 22" fill="none" xmlns="http://www.w3.org/2000/svg">
<path d="M5.11198 9.98183C3.2463 9.75699 1.30598 9.11993 1.30598 8.44541C1.30598 7.28372 3.13436 6.68414 4.85079 6.68414H5.22393C7.0523 6.68414 8.73142 7.69593 8.73142 8.48288V8.89509C8.73142 9.00751 8.84336 9.11993 8.9553 9.11993H9.70158C9.81352 9.11993 9.92546 9.00751 9.92546 8.89509V8.44541C9.92546 6.72161 7.38812 5.44751 5.1493 5.44751H4.73885C2.46271 5.48498 0 6.42182 0 8.44541C0 10.6939 4.40302 11.1061 4.8881 11.1436C6.64185 11.2935 8.6941 12.0055 8.6941 12.68C8.6941 13.8417 6.86573 14.4787 5.18661 14.4787H4.77616C2.94779 14.4787 1.26867 13.4669 1.26867 12.68V12.2678C1.26867 12.1553 1.15673 12.0429 1.04479 12.0429H0.29851C0.186569 12.0429 0.0746275 12.1553 0.0746275 12.2678V12.68C0.0746275 14.4038 2.61196 15.6779 4.85079 15.6779H5.22393C7.53738 15.6779 10.0001 14.741 10.0001 12.68C10.0001 10.469 5.63438 10.0193 5.11198 9.98183ZM24.7763 5.41003H24.0301C23.9181 5.41003 23.8062 5.52245 23.8062 5.63488V12.6425C23.8062 13.8042 21.9778 14.4412 20.2987 14.4412H19.8882C18.0599 14.4412 16.3807 13.4295 16.3807 12.6425V5.63488C16.3807 5.52245 16.2688 5.41003 16.1569 5.41003H15.4106C15.2986 5.41003 15.1867 5.52245 15.1867 5.63488V12.7175C15.1867 14.4412 17.724 15.7154 19.9629 15.7154H20.3733C22.1271 15.7154 23.6196 15.2282 24.4032 14.3663C24.851 13.8791 25.0748 13.317 25.0002 12.6425V5.63488C24.9629 5.52245 24.8883 5.41003 24.7763 5.41003ZM38.9556 13.6918C38.9556 13.8791 38.6944 13.9916 38.5824 13.8417L32.3137 5.82224C32.0898 5.55993 31.7913 5.41003 31.4182 5.41003C31.2689 5.41003 31.1197 5.44751 30.9704 5.48498C30.56 5.67235 30.2615 6.04709 30.2615 6.49677V15.453C30.2615 15.5655 30.3734 15.6779 30.4853 15.6779H31.2316C31.3436 15.6779 31.4555 15.5655 31.4555 15.453L31.5301 7.39614C31.5301 7.20877 31.7913 7.09635 31.9033 7.28372L38.1347 15.3031C38.3212 15.5655 38.657 15.7154 38.9929 15.7154C39.1421 15.7154 39.2914 15.6779 39.4406 15.6404C39.8511 15.4905 40.1496 15.0783 40.1496 14.6286V5.63488C40.1496 5.52245 40.0377 5.41003 39.9257 5.41003H39.1794C39.0675 5.41003 38.9556 5.52245 38.9556 5.63488V13.6918ZM51.4184 5.41003C48.0601 5.41003 45.2989 7.69593 45.2989 10.544C45.2989 13.392 48.0228 15.6779 51.4184 15.6779C54.7766 15.6779 57.5378 13.392 57.5378 10.544C57.5378 7.69593 54.7766 5.41003 51.4184 5.41003ZM51.4184 14.5537C48.7691 14.5537 46.5676 12.7549 46.5676 10.6189C46.5676 8.44541 48.7318 6.68414 51.4184 6.68414C54.1423 6.68414 56.2691 8.40793 56.2691 10.6189C56.2691 12.7924 54.1049 14.5537 51.4184 14.5537Z" fill="#4B4B4B"/>
<path fill-rule="evenodd" clip-rule="evenodd" d="M73.4977 0.000488281H75.374C74.5969 2.22067 73.7986 6.60776 73.7986 10.5632C73.7986 14.519 74.5969 18.9061 75.374 21.1262H73.4977C72.344 18.8296 71.2403 15.3515 71.2403 10.5632C71.2403 5.77526 72.344 2.2974 73.4977 0.000488281Z" fill="#D42126"/>
<path d="M94.4548 15.1656C93.5755 15.1656 92.78 14.973 92.0682 14.5878C91.3647 14.1942 90.812 13.6583 90.4101 12.98C90.0081 12.2933 89.8071 11.5228 89.8071 10.6687C89.8071 9.81447 90.0081 9.04823 90.4101 8.36992C90.812 7.68324 91.3689 7.14729 92.0807 6.76207C92.7925 6.36849 93.5881 6.17169 94.4674 6.17169C95.1541 6.17169 95.7821 6.28893 96.3516 6.52341C96.921 6.74951 97.4067 7.08867 97.8087 7.54087L96.9922 8.33224C96.3306 7.63718 95.5058 7.28965 94.5176 7.28965C93.8644 7.28965 93.2741 7.4362 92.7465 7.72929C92.2189 8.02239 91.8044 8.42854 91.5029 8.94774C91.2098 9.45857 91.0633 10.0322 91.0633 10.6687C91.0633 11.3051 91.2098 11.8829 91.5029 12.4021C91.8044 12.913 92.2189 13.3149 92.7465 13.608C93.2741 13.9011 93.8644 14.0477 94.5176 14.0477C95.4974 14.0477 96.3223 13.696 96.9922 12.9925L97.8087 13.7839C97.4067 14.2361 96.9168 14.5794 96.339 14.8139C95.7696 15.0484 95.1415 15.1656 94.4548 15.1656ZM109.667 15.1656C108.779 15.1656 107.979 14.973 107.267 14.5878C106.556 14.1942 105.995 13.6541 105.584 12.9674C105.182 12.2807 104.981 11.5145 104.981 10.6687C104.981 9.82284 105.182 9.0566 105.584 8.36992C105.995 7.68324 106.556 7.14729 107.267 6.76207C107.979 6.36849 108.779 6.17169 109.667 6.17169C110.546 6.17169 111.341 6.36849 112.053 6.76207C112.765 7.14729 113.322 7.68324 113.724 8.36992C114.126 9.04823 114.327 9.81447 114.327 10.6687C114.327 11.5228 114.126 12.2933 113.724 12.98C113.322 13.6583 112.765 14.1942 112.053 14.5878C111.341 14.973 110.546 15.1656 109.667 15.1656ZM109.667 14.0477C110.311 14.0477 110.889 13.9011 111.4 13.608C111.919 13.3149 112.325 12.913 112.619 12.4021C112.92 11.8829 113.071 11.3051 113.071 10.6687C113.071 10.0322 112.92 9.45857 112.619 8.94774C112.325 8.42854 111.919 8.02239 111.4 7.72929C110.889 7.4362 110.311 7.28965 109.667 7.28965C109.022 7.28965 108.436 7.4362 107.908 7.72929C107.389 8.02239 106.979 8.42854 106.677 8.94774C106.384 9.45857 106.237 10.0322 106.237 10.6687C106.237 11.3051 106.384 11.8829 106.677 12.4021C106.979 12.913 107.389 13.3149 107.908 13.608C108.436 13.9011 109.022 14.0477 109.667 14.0477ZM130.089 6.27218V15.0651H129.059L123.784 8.50809V15.0651H122.527V6.27218H123.557L128.833 12.8292V6.27218H130.089ZM141.564 15.1656C140.903 15.1656 140.262 15.0651 139.643 14.8642C139.031 14.6548 138.55 14.3868 138.198 14.0602L138.663 13.0804C138.998 13.3819 139.425 13.629 139.944 13.8216C140.472 14.0058 141.012 14.0979 141.564 14.0979C142.293 14.0979 142.837 13.9765 143.197 13.7336C143.557 13.4824 143.738 13.1516 143.738 12.7413C143.738 12.4398 143.637 12.197 143.436 12.0127C143.243 11.8201 143.001 11.6736 142.707 11.5731C142.423 11.4726 142.017 11.3595 141.489 11.2339C140.827 11.0748 140.292 10.9157 139.881 10.7566C139.479 10.5975 139.132 10.3546 138.839 10.0281C138.554 9.69304 138.412 9.24502 138.412 8.68395C138.412 8.215 138.533 7.7921 138.776 7.41526C139.027 7.03842 139.404 6.73695 139.906 6.51085C140.409 6.28474 141.033 6.17169 141.778 6.17169C142.297 6.17169 142.808 6.23869 143.31 6.37267C143.813 6.50666 144.244 6.69927 144.604 6.95049L144.19 7.9554C143.821 7.72092 143.428 7.54506 143.009 7.42782C142.59 7.30221 142.18 7.2394 141.778 7.2394C141.066 7.2394 140.53 7.3692 140.17 7.6288C139.818 7.8884 139.643 8.22337 139.643 8.63371C139.643 8.93518 139.743 9.18222 139.944 9.37482C140.145 9.55906 140.392 9.7056 140.685 9.81447C140.987 9.91496 141.393 10.0239 141.904 10.1411C142.565 10.3002 143.097 10.4593 143.499 10.6184C143.901 10.7775 144.244 11.0204 144.529 11.347C144.822 11.6736 144.969 12.1132 144.969 12.6659C144.969 13.1265 144.843 13.5494 144.592 13.9346C144.34 14.3115 143.959 14.6129 143.449 14.839C142.938 15.0568 142.31 15.1656 141.564 15.1656ZM156.727 15.1656C155.555 15.1656 154.642 14.8307 153.989 14.1607C153.336 13.4908 153.009 12.5278 153.009 11.2716V6.27218H154.265V11.2214C154.265 13.1056 155.09 14.0477 156.74 14.0477C157.544 14.0477 158.159 13.8174 158.586 13.3568C159.013 12.8878 159.227 12.176 159.227 11.2214V6.27218H160.445V11.2716C160.445 12.5361 160.119 13.5033 159.465 14.1733C158.812 14.8348 157.899 15.1656 156.727 15.1656ZM169.301 6.27218H170.557V13.9723H175.318V15.0651H169.301V6.27218ZM183.964 7.36502H180.949V6.27218H188.222V7.36502H185.208V15.0651H183.964V7.36502ZM199.718 15.1656C198.83 15.1656 198.031 14.973 197.319 14.5878C196.607 14.1942 196.046 13.6541 195.636 12.9674C195.234 12.2807 195.033 11.5145 195.033 10.6687C195.033 9.82284 195.234 9.0566 195.636 8.36992C196.046 7.68324 196.607 7.14729 197.319 6.76207C198.031 6.36849 198.83 6.17169 199.718 6.17169C200.597 6.17169 201.393 6.36849 202.105 6.76207C202.816 7.14729 203.373 7.68324 203.775 8.36992C204.177 9.04823 204.378 9.81447 204.378 10.6687C204.378 11.5228 204.177 12.2933 203.775 12.98C203.373 13.6583 202.816 14.1942 202.105 14.5878C201.393 14.973 200.597 15.1656 199.718 15.1656ZM199.718 14.0477C200.363 14.0477 200.941 13.9011 201.451 13.608C201.971 13.3149 202.377 12.913 202.67 12.4021C202.971 11.8829 203.122 11.3051 203.122 10.6687C203.122 10.0322 202.971 9.45857 202.67 8.94774C202.377 8.42854 201.971 8.02239 201.451 7.72929C200.941 7.4362 200.363 7.28965 199.718 7.28965C199.073 7.28965 198.487 7.4362 197.959 7.72929C197.44 8.02239 197.03 8.42854 196.728 8.94774C196.435 9.45857 196.289 10.0322 196.289 10.6687C196.289 11.3051 196.435 11.8829 196.728 12.4021C197.03 12.913 197.44 13.3149 197.959 13.608C198.487 13.9011 199.073 14.0477 199.718 14.0477ZM218.457 15.0651L216.561 12.3645C216.326 12.3812 216.142 12.3896 216.008 12.3896H213.835V15.0651H212.579V6.27218H216.008C217.147 6.27218 218.043 6.54434 218.696 7.08867C219.349 7.63299 219.676 8.38248 219.676 9.33714C219.676 10.0155 219.508 10.5933 219.173 11.0706C218.838 11.548 218.361 11.8955 217.741 12.1132L219.827 15.0651H218.457ZM215.97 11.3219C216.766 11.3219 217.373 11.1502 217.792 10.8069C218.21 10.4635 218.42 9.97358 218.42 9.33714C218.42 8.7007 218.21 8.215 217.792 7.88003C217.373 7.53669 216.766 7.36502 215.97 7.36502H213.835V11.3219H215.97ZM227.986 6.27218H229.242V15.0651H227.986V6.27218ZM243.758 12.8669H239.085L238.118 15.0651H236.824L240.806 6.27218H242.049L246.044 15.0651H244.725L243.758 12.8669ZM243.318 11.862L241.421 7.55343L239.524 11.862H243.318Z" fill="#4B4B4B"/>
<path fill-rule="evenodd" clip-rule="evenodd" d="M264.001 10.5627C264.001 15.351 262.897 18.8286 261.743 21.1258H259.867C260.644 18.9051 261.442 14.5178 261.442 10.5627C261.442 6.60727 260.644 2.22018 259.867 0H261.743C262.897 2.29691 264.001 5.7743 264.001 10.5627Z" fill="#D42126"/>
</svg>
